<?xml version="1.0" encoding="UTF-8"?>
<svg version="1.1" xmlns="http://www.w3.org/2000/svg" xmlns:xlink="http://www.w3.org/1999/xlink">
    <g fill="#fff">
        <path d="M-.67-4.08h14a2,2,0,0,1,2,2v10a2,2,0,0,1-2,2h-14a2,2,0,0,1-2-2v-10A2,2,0,0,1-.67-4.08Z" transform="translate(2.67 4.08)"/>
    </g>
    <g fill="#000">
        <path d="M2.88,6.67a2.81,2.81,0,0,1-2.1-1A3.91,3.91,0,0,1,.88.87c.5-.6,2-1.7,4.6.2l-.6.8c-1.4-1-2.6-1.1-3.3-.3a3,3,0,0,0-.1,3.5c.7.9,1.9.8,3.4-.1l.5.9a5.28,5.28,0,0,1-2.5.8Zm7.5,0a2.81,2.81,0,0,1-2.1-1,3.91,3.91,0,0,1,.1-4.8c.5-.6,2-1.7,4.6.2l-.5.8c-1.4-1-2.6-1.1-3.3-.3a3,3,0,0,0-.1,3.5c.7.9,1.9.8,3.4-.1l.5.9a6.07,6.07,0,0,1-2.6.8Z" transform="translate(2.67 4.08)"/>
    </g>
</svg>